<svg width="158" height="38" viewBox="0 0 158 38" fill="none" xmlns="http://www.w3.org/2000/svg">
<path d="M103.228 21.6405H61.7865C61.1686 21.6405 60.5761 21.3737 60.1392 20.8988C59.7023 20.4238 59.4569 19.7797 59.4569 19.1081C59.4569 18.4364 59.7023 17.7923 60.1392 17.3174C60.5761 16.8425 61.1686 16.5757 61.7865 16.5757H103.228C103.846 16.5757 104.438 16.8425 104.875 17.3174C105.312 17.7923 105.558 18.4364 105.558 19.1081C105.558 19.7797 105.312 20.4238 104.875 20.8988C104.438 21.3737 103.846 21.6405 103.228 21.6405Z" fill="#C850C0"/>
<path d="M154.93 21.6405H113.488C112.87 21.6405 112.278 21.3737 111.841 20.8988C111.404 20.4238 111.159 19.7797 111.159 19.1081C111.159 18.4364 111.404 17.7923 111.841 17.3174C112.278 16.8425 112.87 16.5757 113.488 16.5757H154.93C155.548 16.5757 156.14 16.8425 156.577 17.3174C157.014 17.7923 157.259 18.4364 157.259 19.1081C157.259 19.7797 157.014 20.4238 156.577 20.8988C156.14 21.3737 155.548 21.6405 154.93 21.6405Z" fill="#FFCC70"/>
<path d="M154.918 30.8491H82.4783C81.8575 30.8491 81.2621 30.5823 80.8232 30.1074C80.3842 29.6324 80.1376 28.9883 80.1376 28.3167C80.1376 27.6451 80.3842 27.0009 80.8232 26.526C81.2621 26.0511 81.8575 25.7843 82.4783 25.7843H154.918C155.539 25.7843 156.135 26.0511 156.574 26.526C157.013 27.0009 157.259 27.6451 157.259 28.3167C157.259 28.9883 157.013 29.6324 156.574 30.1074C156.135 30.5823 155.539 30.8491 154.918 30.8491Z" fill="#C850C0"/>
<path d="M103.225 11.9713H61.7836C61.1663 11.9704 60.5745 11.7033 60.1382 11.2284C59.702 10.7536 59.4569 10.11 59.4569 9.43888C59.4569 8.76779 59.702 8.12414 60.1382 7.64931C60.5745 7.17449 61.1663 6.90732 61.7836 6.9065H103.225C103.531 6.90609 103.835 6.97128 104.117 7.09836C104.4 7.22544 104.658 7.41191 104.874 7.64711C105.091 7.8823 105.263 8.16161 105.38 8.46905C105.497 8.7765 105.558 9.10606 105.558 9.43888C105.558 9.7717 105.497 10.1013 105.38 10.4087C105.263 10.7162 105.091 10.9955 104.874 11.2307C104.658 11.4659 104.4 11.6523 104.117 11.7794C103.835 11.9065 103.531 11.9717 103.225 11.9713Z" fill="#FFCC70"/>
<path d="M126.071 11.9713H114.342C113.726 11.9713 113.136 11.7045 112.7 11.2295C112.265 10.7546 112.02 10.1105 112.02 9.43888C112.02 8.76725 112.265 8.12313 112.7 7.64821C113.136 7.1733 113.726 6.90649 114.342 6.90649H126.071C126.687 6.90649 127.277 7.1733 127.713 7.64821C128.148 8.12313 128.392 8.76725 128.392 9.43888C128.392 10.1105 128.148 10.7546 127.713 11.2295C127.277 11.7045 126.687 11.9713 126.071 11.9713Z" fill="#C850C0"/>
<path d="M73.5048 30.8491H61.7755C61.1603 30.8482 60.5706 30.5811 60.1358 30.1063C59.7011 29.6314 59.4569 28.9878 59.4569 28.3167C59.4569 27.6456 59.7011 27.0019 60.1358 26.5271C60.5706 26.0523 61.1603 25.7851 61.7755 25.7843H73.5048C73.8099 25.7839 74.1121 25.8491 74.3941 25.9762C74.676 26.1033 74.9323 26.2897 75.1482 26.5249C75.364 26.7601 75.5353 27.0394 75.6521 27.3469C75.769 27.6543 75.8291 27.9839 75.8291 28.3167C75.8291 28.6495 75.769 28.9791 75.6521 29.2865C75.5353 29.594 75.364 29.8733 75.1482 30.1085C74.9323 30.3437 74.676 30.5301 74.3941 30.6572C74.1121 30.7843 73.8099 30.8495 73.5048 30.8491Z" fill="#FFCC70"/>
<path d="M17.5556 37.4604C16.7384 37.4624 15.9535 37.1193 15.372 36.506L0.89707 21.2356C0.612899 20.9358 0.387275 20.5787 0.233282 20.185C0.0792884 19.7914 0 19.3689 0 18.9423C0 18.5156 0.0792884 18.0932 0.233282 17.6995C0.387275 17.3059 0.612899 16.9488 0.89707 16.649L15.3135 1.44021C15.9141 0.80968 16.7233 0.457631 17.5653 0.460466C18.4074 0.463301 19.2144 0.820792 19.8113 1.45535C20.4087 2.09505 20.7442 2.96179 20.7443 3.86544C20.7443 4.76909 20.4088 5.63585 19.8113 6.27556L9.09867 17.7203C8.76492 18.0777 8.57748 18.562 8.57748 19.0668C8.57748 19.5716 8.76492 20.0559 9.09867 20.4133L19.7532 31.7959C20.1883 32.2598 20.4847 32.8512 20.6049 33.4952C20.725 34.1393 20.6635 34.8069 20.4282 35.4136C20.1928 36.0202 19.7942 36.5386 19.2828 36.903C18.7714 37.2674 18.1703 37.4614 17.5556 37.4604V37.4604Z" fill="#4158D0"/>
<path d="M32.9188 37C32.3041 37.0009 31.7029 36.8069 31.1915 36.4425C30.6801 36.0781 30.2815 35.5598 30.0461 34.9531C29.8108 34.3465 29.7493 33.6788 29.8694 33.0348C29.9896 32.3908 30.286 31.7993 30.7211 31.3354L41.3756 19.9529C41.7094 19.5955 41.8968 19.1112 41.8968 18.6064C41.8968 18.1015 41.7094 17.6173 41.3756 17.2599L30.663 5.81512C30.3667 5.49862 30.1317 5.12288 29.9714 4.70935C29.811 4.29582 29.7285 3.8526 29.7285 3.405C29.7285 2.9574 29.8111 2.51419 29.9714 2.10067C30.1317 1.68714 30.3668 1.31141 30.663 0.994916C31.2599 0.360353 32.0669 0.00285219 32.909 1.69923e-05C33.751 -0.0028182 34.5602 0.349241 35.1608 0.979772L49.5772 16.1885C49.8614 16.4883 50.087 16.8454 50.241 17.2391C50.395 17.6328 50.4743 18.0552 50.4743 18.4818C50.4743 18.9085 50.395 19.3309 50.241 19.7246C50.087 20.1183 49.8614 20.4754 49.5772 20.7751L35.1023 36.0455C34.5207 36.6588 33.7359 37.0019 32.9188 37Z" fill="#4158D0"/>
</svg>
